<svg width="7" height="6" viewBox="0 0 7 6" fill="none" xmlns="http://www.w3.org/2000/svg">
<path d="M3.49199 5.09818C3.40595 5.09818 3.3223 5.08145 3.24104 5.04799C3.15978 5.01453 3.08569 4.96434 3.01878 4.89742L0.179512 2.05816C0.0552344 1.93388 -0.00451435 1.77614 0.00026555 1.58495C0.00504545 1.39375 0.0695742 1.23123 0.193852 1.0974C0.337249 0.954 0.497376 0.889471 0.674232 0.903811C0.851089 0.918151 1.00644 0.987459 1.14027 1.11174L3.49199 3.46345L5.8437 1.11174C5.97754 0.987459 6.14005 0.92054 6.33125 0.910981C6.52245 0.901421 6.68018 0.968339 6.80446 1.11174C6.94786 1.24557 7.01238 1.4057 6.99804 1.59212C6.98371 1.77853 6.9144 1.93866 6.79012 2.0725L3.9652 4.89742C3.89828 4.96434 3.82419 5.01453 3.74293 5.04799C3.66167 5.08145 3.57802 5.09818 3.49199 5.09818Z" fill="#AABCCC"/>
</svg>
